# xmcd CD database file
#
# Track frame offsets:
#	150
#	14130
#	33135
#	48110
#	62832
#	77497
#	88742
#	107872
#	121532
#	134345
#	148405
#	166620
#
# Disc length: 2443 seconds
#
# Revision: 2
# Processed by: cddbd v1.5PL3 Copyright (c) Steve Scherf et al.
# Submitted via: CDex 1.51
#
DISCID=9809890c
DTITLE=Lyle Lovett - Here I Am - The Lyle Lovett Collection 1986-1991 (Curb Records)
DYEAR=1991
DGENRE=Country
TTITLE0=You Can't Resist It
TTITLE1=Friend Of The Devil
TTITLE2=Simple Song
TTITLE3=L.A.County
TTITLE4=She's No Lady
TTITLE5=Cryin' Shame
TTITLE6=This Old Porch
TTITLE7=Give Back My Heart
TTITLE8=Cowboy Man
TTITLE9=What Do You Do - The Glory Of Love
TTITLE10=Here I Am
TTITLE11=Closing Time
EXTD=YEAR: 1991
EXTT0=
EXTT1=
EXTT2=
EXTT3=
EXTT4=
EXTT5=
EXTT6=
EXTT7=
EXTT8=
EXTT9=
EXTT10=
EXTT11=
PLAYORDER=
